<?xml version="1.0" encoding="utf-8"?>
<svg viewBox="96.955 345.7065 900 170.9845" xmlns="http://www.w3.org/2000/svg">
  <path d="M 96.955 392.691 L 118.455 394.491 C 139.955 396.391 182.955 399.991 225.755 388.191 C 268.655 376.391 311.255 348.991 354.155 345.991 C 396.955 342.991 439.955 364.391 482.755 378.491 C 525.655 392.691 568.255 399.691 611.155 401.691 C 653.955 403.691 696.955 400.691 739.755 393.891 C 782.655 386.991 825.255 376.391 868.155 376.191 C 910.955 375.991 953.955 386.391 975.455 391.491 L 996.955 396.691 L 996.955 516.691 L 975.455 516.691 C 953.955 516.691 910.955 516.691 868.155 516.691 C 825.255 516.691 782.655 516.691 739.755 516.691 C 696.955 516.691 653.955 516.691 611.155 516.691 C 568.255 516.691 525.655 516.691 482.755 516.691 C 439.955 516.691 396.955 516.691 354.155 516.691 C 311.255 516.691 268.655 516.691 225.755 516.691 C 182.955 516.691 139.955 516.691 118.455 516.691 L 96.955 516.691 L 96.955 392.691 Z" fill="#ff9100" stroke-linecap="round" stroke-linejoin="miter" transform="matrix(1, 0, 0, 1, -7.105427357601002e-15, 0)"/>
</svg>