<svg id="visual" viewBox="0 0 900 600" width="900" height="600" xmlns="http://www.w3.org/2000/svg" xmlns:xlink="http://www.w3.org/1999/xlink" version="1.1"><path d="M0 477L21.5 478.8C43 480.7 86 484.3 128.8 472.5C171.7 460.7 214.3 433.3 257.2 430.3C300 427.3 343 448.7 385.8 462.8C428.7 477 471.3 484 514.2 486C557 488 600 485 642.8 478.2C685.7 471.3 728.3 460.7 771.2 460.5C814 460.3 857 470.7 878.5 475.8L900 481L900 601L878.5 601C857 601 814 601 771.2 601C728.3 601 685.7 601 642.8 601C600 601 557 601 514.2 601C471.3 601 428.7 601 385.8 601C343 601 300 601 257.2 601C214.3 601 171.7 601 128.8 601C86 601 43 601 21.5 601L0 601Z" fill="#ff9100" stroke-linecap="round" stroke-linejoin="miter"></path></svg>