<?xml version="1.0" encoding="utf-8"?>
<!-- Generator: Adobe Illustrator 24.0.2, SVG Export Plug-In . SVG Version: 6.00 Build 0)  -->
<svg version="1.1" id="Layer_1" xmlns="http://www.w3.org/2000/svg" xmlns:xlink="http://www.w3.org/1999/xlink" x="0px" y="0px"
	 width="500px" height="217.121px" viewBox="0 0 500 217.121" style="enable-background:new 0 0 500 217.121;" xml:space="preserve"
	>
<style type="text/css">
	.st0{fill:#D21F29;}
	.st1{fill:#808184;}
</style>
<g>
	<path class="st0" d="M158.13,111.022c0,3.209-2.612,5.822-5.825,5.822s-5.825-2.612-5.825-5.822V54.478
		c0-3.218,2.612-5.833,5.825-5.833s5.825,2.615,5.825,5.833V111.022z M116.518,128.782H59.966c-3.215,0-5.83-2.618-5.83-5.833
		c0-3.212,2.615-5.825,5.83-5.825h56.552c3.218,0,5.836,2.612,5.836,5.825C122.354,126.164,119.736,128.782,116.518,128.782
		 M166.884,155.293c-3.212,0-5.825-2.618-5.825-5.833c0-3.212,2.612-5.828,5.825-5.828h44.412
		c3.756-11.005,5.825-22.792,5.825-35.072C217.121,48.606,168.518,0,108.56,0C48.605,0,0,48.606,0,108.561
		c0,59.958,48.605,108.56,108.56,108.56c3.854,0,7.658-0.207,11.409-0.597v-55.128c0-3.215,2.615-5.83,5.825-5.83
		c3.215,0,5.83,2.615,5.83,5.83v53.25c33.16-7.179,60.675-29.488,74.94-59.352H166.884z"/>
	<path class="st0" d="M275.281,46.219h3.038c3.123,0,5.432-1.287,5.432-4.877c0-4.662-3.21-4.959-5.432-4.959h-3.038V46.219z
		 M271.006,32.961h7.1c4.359,0,10.349,0.642,10.349,8.381c0,7.229-6.374,8.3-9.368,8.3h-3.807v12.83h-4.275V32.961z"/>
	<path class="st0" d="M296.622,46.345h2.481c2.994,0,6.158-1.194,6.158-5.13c0-3.593-2.007-4.832-5.177-4.832h-3.462V46.345z
		 M292.342,32.961h8.558c4.62,0,8.639,1.965,8.639,7.742c0,4.619-2.826,6.242-5.814,6.969v0.087
		c4.017,0.855,4.443,3.422,5.085,6.503l1.757,8.21h-3.893l-1.8-6.545c-1.194-4.23-1.71-6.158-5.816-6.158h-2.436v12.703h-4.28
		V32.961z"/>
	<path class="st0" d="M325.399,59.522c5.901,0,6.842-6.971,6.842-11.807c0-4.835-0.942-11.804-6.842-11.804
		c-5.903,0-6.8,6.969-6.8,11.804C318.599,52.551,319.496,59.522,325.399,59.522 M313.896,47.715c0-8,2.436-15.226,11.504-15.226
		c9.065,0,11.552,7.226,11.552,15.226c0,7.955-2.486,15.229-11.552,15.229C316.331,62.945,313.896,55.67,313.896,47.715"/>
	<polygon class="st0" points="354.945,32.961 370.772,32.961 370.772,36.383 359.22,36.383 359.22,45.404 370.172,45.404 
		370.172,48.826 359.22,48.826 359.22,62.471 354.945,62.471 	"/>
	<path class="st0" d="M380.09,50.626h8.426l-4.062-13.729h-0.087L380.09,50.626z M381.755,32.961h5.261l10.097,29.511h-4.535
		l-2.907-8.426h-10.565l-2.865,8.426h-4.533L381.755,32.961z"/>
	<polygon class="st0" points="400.829,32.961 406.856,32.961 415.246,57.126 415.327,57.126 423.714,32.961 429.698,32.961 
		429.698,62.471 425.85,62.471 425.85,38.009 425.766,38.009 417.298,62.471 413.236,62.471 404.765,38.009 404.678,38.009 
		404.678,62.471 400.829,62.471 	"/>
	<rect x="436.493" y="32.961" class="st0" width="4.275" height="29.511"/>
	<polygon class="st0" points="447.567,32.961 451.842,32.961 451.842,59.052 463.175,59.052 463.175,62.471 447.567,62.471 	"/>
	<rect x="466.553" y="32.961" class="st0" width="4.275" height="29.511"/>
	<path class="st0" d="M482.971,50.626h8.426l-4.062-13.729h-0.081L482.971,50.626z M484.642,32.961h5.261L500,62.471h-4.535
		l-2.912-8.426h-10.559l-2.87,8.426h-4.533L484.642,32.961z"/>
	<path class="st1" d="M279.514,87.686c3.083,1.671,6.29,3.423,6.29,8.087c0,6.203-5.003,8.255-10.094,8.255
		c-3.467,0-5.519-0.603-6.203-0.729v-2.61c0.984,0.3,2.912,0.897,6.842,0.897c3.509,0,6.887-1.965,6.887-5.432
		c0-3.849-3.465-5.13-5.261-6.158l-2.436-1.323c-2.694-1.5-6.329-3.123-6.329-7.574c0-1.236,0.51-7.526,8.978-7.526
		c2.313,0,4.835,0.471,5.864,0.729v2.694c-0.942-0.342-3.17-0.984-5.864-0.984c-4.446,0-6.416,2.094-6.416,4.875
		s2.825,4.151,5.219,5.474L279.514,87.686z"/>
	<path class="st1" d="M307.83,102.23c-1.116,0.513-3.17,1.8-7.313,1.8c-8.258,0-10.952-7.616-10.952-15.997
		c0-7.016,2.313-14.461,10.736-14.461c2.652,0,4.875,1.032,6.329,2.439c1.626,1.5,2.31,3.464,2.31,6.074h-2.912
		c0-2.823-1.449-6.074-6.027-6.074c-5.819,0-7.616,6.032-7.616,12.235c0,5.345,1.287,13.343,8.3,13.343
		c4.193,0,6.158-1.626,7.145-2.349V102.23z"/>
	<polygon class="st1" points="313.337,74.043 315.905,74.043 315.905,87.134 328.606,87.134 328.606,74.043 331.173,74.043 
		331.173,103.557 328.606,103.557 328.606,89.486 315.905,89.486 315.905,103.557 313.337,103.557 	"/>
	<polygon class="st1" points="336.687,74.043 339.254,74.043 343.574,100.989 343.655,100.989 350.248,74.043 353.539,74.043 
		360.168,100.989 360.255,100.989 364.701,74.043 367.268,74.043 362.178,103.557 358.584,103.557 351.955,77.037 351.868,77.037 
		345.281,103.557 341.735,103.557 	"/>
	<polygon class="st1" points="372.733,74.043 385.868,74.043 385.868,76.398 375.3,76.398 375.3,86.921 385.352,86.921 
		385.352,89.27 375.3,89.27 375.3,101.202 386.207,101.202 386.207,103.557 372.733,103.557 	"/>
	<rect x="391.806" y="74.043" class="st1" width="2.568" height="29.514"/>
	<polygon class="st1" points="399.417,101.119 414.172,76.399 400.187,76.399 400.187,74.044 417.04,74.044 417.04,76.441 
		402.284,101.203 417.637,101.203 417.637,103.558 399.417,103.558 	"/>
	<path class="st1" d="M279.514,128.772c3.083,1.668,6.29,3.423,6.29,8.084c0,6.203-5.003,8.255-10.094,8.255
		c-3.467,0-5.519-0.6-6.203-0.729v-2.607c0.984,0.297,2.912,0.9,6.842,0.9c3.509,0,6.887-1.971,6.887-5.435
		c0-3.851-3.465-5.133-5.261-6.158l-2.436-1.326c-2.694-1.497-6.329-3.122-6.329-7.571c0-1.239,0.51-7.526,8.978-7.526
		c2.313,0,4.835,0.468,5.864,0.726v2.696c-0.942-0.345-3.17-0.984-5.864-0.984c-4.446,0-6.416,2.094-6.416,4.872
		c0,2.78,2.825,4.151,5.219,5.474L279.514,128.772z"/>
	<path class="st1" d="M309.237,136.086c0,2.484-0.51,9.026-9.368,9.026c-8.21,0-8.933-6.542-8.933-9.026v-20.961h2.562v19.765
		c0,2.694,0.174,7.787,6.371,7.787c6.806,0,6.806-5.093,6.806-7.787v-19.765h2.562V136.086z"/>
	<rect x="316.591" y="115.127" class="st1" width="2.565" height="29.514"/>
	<path class="st1" d="M334.979,128.772c3.078,1.668,6.284,3.423,6.284,8.084c0,6.203-5.003,8.255-10.088,8.255
		c-3.467,0-5.519-0.6-6.203-0.729v-2.607c0.978,0.297,2.907,0.9,6.842,0.9c3.504,0,6.887-1.971,6.887-5.435
		c0-3.851-3.465-5.133-5.261-6.158l-2.442-1.326c-2.694-1.497-6.329-3.122-6.329-7.571c0-1.239,0.516-7.526,8.984-7.526
		c2.313,0,4.835,0.468,5.858,0.726v2.696c-0.942-0.345-3.165-0.984-5.858-0.984c-4.451,0-6.416,2.094-6.416,4.872
		c0,2.78,2.82,4.151,5.219,5.474L334.979,128.772z"/>
	<path class="st1" d="M354.776,128.772c3.083,1.668,6.29,3.423,6.29,8.084c0,6.203-5.003,8.255-10.094,8.255
		c-3.467,0-5.519-0.6-6.203-0.729v-2.607c0.984,0.297,2.912,0.9,6.842,0.9c3.509,0,6.887-1.971,6.887-5.435
		c0-3.851-3.464-5.133-5.261-6.158l-2.436-1.326c-2.694-1.497-6.329-3.122-6.329-7.571c0-1.239,0.51-7.526,8.978-7.526
		c2.313,0,4.835,0.468,5.864,0.726v2.696c-0.942-0.345-3.17-0.984-5.864-0.984c-4.446,0-6.416,2.094-6.416,4.872
		c0,2.78,2.826,4.151,5.219,5.474L354.776,128.772z"/>
	<polygon class="st1" points="366.404,115.126 379.539,115.126 379.539,117.48 368.972,117.48 368.972,128.003 379.023,128.003 
		379.023,130.358 368.972,130.358 368.972,142.285 379.878,142.285 379.878,144.639 366.404,144.639 	"/>
	<path class="st1" d="M279.514,169.857c3.083,1.668,6.29,3.423,6.29,8.081c0,6.203-5.003,8.255-10.094,8.255
		c-3.467,0-5.519-0.597-6.203-0.729v-2.604c0.984,0.297,2.912,0.897,6.842,0.897c3.509,0,6.887-1.968,6.887-5.43
		c0-3.851-3.465-5.135-5.261-6.161l-2.436-1.326c-2.694-1.497-6.329-3.125-6.329-7.568c0-1.244,0.51-7.529,8.978-7.529
		c2.313,0,4.835,0.471,5.864,0.726v2.696c-0.942-0.348-3.17-0.987-5.864-0.987c-4.446,0-6.416,2.097-6.416,4.877
		c0,2.781,2.825,4.148,5.219,5.474L279.514,169.857z"/>
	<polygon class="st1" points="286.571,156.214 289.138,156.214 297.949,183.157 298.035,183.157 307.014,156.214 309.581,156.214 
		299.743,185.722 296.197,185.722 	"/>
	<rect x="312.614" y="156.215" class="st1" width="2.568" height="29.508"/>
	<polygon class="st1" points="320.224,183.286 334.98,158.563 320.99,158.563 320.99,156.214 337.842,156.214 337.842,158.605 
		323.086,183.371 338.444,183.371 338.444,185.722 320.224,185.722 	"/>
	<polygon class="st1" points="340.793,183.286 355.548,158.563 341.558,158.563 341.558,156.214 358.41,156.214 358.41,158.605 
		343.655,183.371 359.013,183.371 359.013,185.722 340.793,185.722 	"/>
	<polygon class="st1" points="363.968,156.214 377.103,156.214 377.103,158.563 366.535,158.563 366.535,169.086 376.587,169.086 
		376.587,171.44 366.535,171.44 366.535,183.37 377.442,183.37 377.442,185.722 363.968,185.722 	"/>
	<path class="st1" d="M385.522,170.027h2.31c4.151,0,8.213-1.371,8.213-6.245c0-5.174-5.135-5.219-7.145-5.219h-3.378V170.027z
		 M382.954,156.214h6.203c3.636,0,9.455,0.897,9.455,7.568c0,6.587-5.348,7.187-5.945,7.355v0.087
		c3.849,0.942,4.275,3.291,4.917,6.542l1.668,7.955h-2.568l-1.494-6.969c-0.858-4.062-1.668-6.371-6.119-6.371h-3.549v13.34h-2.567
		V156.214z"/>
	<path class="st1" d="M408.821,173.831h9.545l-4.967-15.523h-0.081L408.821,173.831z M411.905,156.214h3.296l9.536,29.508h-2.523
		l-3.125-9.536h-11.033l-2.994,9.536h-2.526L411.905,156.214z"/>
</g>
</svg>
